<svg width="512" height="512" viewBox="0 0 512 512" fill="none" xmlns="http://www.w3.org/2000/svg">
  <defs>
    <linearGradient id="bg" x1="68" y1="52" x2="444" y2="460" gradientUnits="userSpaceOnUse">
      <stop stop-color="#1E3344"/>
      <stop offset="0.55" stop-color="#25556D"/>
      <stop offset="1" stop-color="#1E7A7A"/>
    </linearGradient>
    <linearGradient id="cool" x1="146" y1="162" x2="350" y2="362" gradientUnits="userSpaceOnUse">
      <stop stop-color="#8CE6FF"/>
      <stop offset="1" stop-color="#E5FDFF"/>
    </linearGradient>
    <linearGradient id="warm" x1="352" y1="176" x2="204" y2="348" gradientUnits="userSpaceOnUse">
      <stop stop-color="#FFB36C"/>
      <stop offset="1" stop-color="#F06A36"/>
    </linearGradient>
  </defs>

  <rect x="32" y="32" width="448" height="448" rx="104" fill="url(#bg)"/>
  <circle cx="256" cy="256" r="158" fill="#FFFFFF" fill-opacity="0.05"/>
  <circle cx="256" cy="256" r="130" fill="#0E2330" fill-opacity="0.26"/>

  <path d="M155 232C167 182 211 146 264 146C302 146 338 165 361 197" stroke="url(#cool)" stroke-width="30" stroke-linecap="round"/>
  <path d="M356 156L384 204L329 209" fill="url(#cool)"/>

  <path d="M357 280C345 330 301 366 248 366C210 366 174 347 151 315" stroke="url(#warm)" stroke-width="30" stroke-linecap="round"/>
  <path d="M156 356L128 308L183 303" fill="url(#warm)"/>

  <rect x="198" y="180" width="116" height="164" rx="34" fill="#F5FBFD"/>
  <rect x="216" y="148" width="80" height="54" rx="20" fill="#F5FBFD"/>
  <rect x="228" y="132" width="16" height="36" rx="8" fill="#F5FBFD"/>
  <rect x="268" y="132" width="16" height="36" rx="8" fill="#F5FBFD"/>

  <rect x="220" y="220" width="72" height="86" rx="20" fill="#163446"/>
  <path d="M256 236V280" stroke="#8CE6FF" stroke-width="18" stroke-linecap="round"/>
  <path d="M236 264L256 284L276 264" stroke="#8CE6FF" stroke-width="18" stroke-linecap="round" stroke-linejoin="round"/>
</svg>
